<svg width="114" height="114" viewBox="0 0 114 114" fill="none" xmlns="http://www.w3.org/2000/svg">
<path d="M86.64 0H27.36C12.2495 0 0 12.2495 0 27.36V86.64C0 101.751 12.2495 114 27.36 114H86.64C101.751 114 114 101.751 114 86.64V27.36C114 12.2495 101.751 0 86.64 0Z" fill="url(#paint0_linear_163_4726)"/>
<path fill-rule="evenodd" clip-rule="evenodd" d="M56.999 93.4805C77.1464 93.4805 93.479 77.1479 93.479 57.0005C93.479 36.8532 77.1464 20.5205 56.999 20.5205C36.8517 20.5205 20.519 36.8532 20.519 57.0005C20.519 77.1479 36.8517 93.4805 56.999 93.4805ZM50.5611 38.2209C50.561 37.9264 50.7998 37.6875 51.0944 37.6875H62.9028C63.1974 37.6875 63.4362 37.9263 63.4362 38.2209V50.6981H50.5624V63.3023H63.4362V75.7797C63.4362 76.0743 63.1974 76.313 62.9028 76.313H51.0943C50.7998 76.313 50.561 76.0743 50.561 75.7797V63.7088H38.2205C37.926 63.7088 37.6872 63.4701 37.6872 63.1755V51.2315C37.6872 50.9369 37.926 50.6981 38.2206 50.6981H50.5624L50.5611 38.2209ZM63.4362 50.6981H75.7803C76.0748 50.6981 76.3136 50.9369 76.3136 51.2315V63.1755C76.3136 63.4701 76.0748 63.7088 75.7803 63.7088H63.4385L63.4362 50.6981Z" fill="#0C0B0B"/>
<defs>
<linearGradient id="paint0_linear_163_4726" x1="109.25" y1="5.42857" x2="-33.25" y2="167.607" gradientUnits="userSpaceOnUse">
<stop stop-color="#BDFDE2"/>
<stop offset="1" stop-color="#9BDAF6"/>
</linearGradient>
</defs>
</svg>
