<?xml version="1.0" encoding="utf-8"?>
<!-- Generator: Adobe Illustrator 24.0.1, SVG Export Plug-In . SVG Version: 6.00 Build 0)  -->
<svg version="1.1" id="Layer_1" xmlns="http://www.w3.org/2000/svg" xmlns:xlink="http://www.w3.org/1999/xlink" x="0px" y="0px"
	 viewBox="0 0 301.4 470.5" style="enable-background:new 0 0 301.4 470.5;" xml:space="preserve">
<style type="text/css">
	.st0{fill:#133444;}
	.st1{fill:#C42370;}
	.st2{fill:#1C4D6B;}
	.st3{fill:#1D4259;}
	.st4{fill:#4B6B9A;}
	.st5{fill:#343535;}
	.st6{fill:#3E5578;}
	.st7{fill:#6DB2D8;}
	.st8{fill:#335F8A;}
	.st9{fill:#529BBA;}
</style>
<g id="Layer_2_1_">
	<g id="Layer_1-2">
		<polygon class="st0" points="4.5,262.1 15.4,257.3 150.7,198.5 296.9,262.1 242,375.5 107.7,394.5 6.7,285.5 		"/>
		<path class="st1" d="M266.5,192.1c-24.1-29.1-58.4-48-95.8-53c-0.8-0.1-1.6-0.2-2.4-0.3c-11.7-1.4-23.5-1.4-35.2,0
			c-0.8,0.1-1.6,0.2-2.4,0.3c-37.5,5-71.7,23.9-95.8,53l0,0l-6.1,10.1L18.7,219l-7.4,12.3l0,0c-0.1,0.3-0.3,0.7-0.4,1l-0.1,0.2
			l16.4,9.7l103.5,61.3l20,11.8V168.8l-20,9.1V156l20-9.1l20,9.1l101.9,46.3L266.5,192.1z"/>
		<path class="st2" d="M301.4,298.5c0,48.8-23.2,94.4-59.1,123.8c-14.1,11.6-30.3,20.6-47.6,26.4c-14.2,4.7-29,7.1-43.9,7.1
			C67.5,455.8,0,381.8,0,298.5C0,286.2,1.5,274,4.4,262l146.3,86.6l146.2-86.5C299.9,274,301.4,286.3,301.4,298.5z"/>
		<polygon points="133.1,138.9 150.7,146.9 130.7,156 130.7,137.8 		"/>
		<polygon points="130.7,177.9 150.7,168.8 150.7,315.4 130.7,303.5 		"/>
		<polygon class="st3" points="150.7,168.8 150.7,315.4 290.8,232.5 		"/>
		<polygon class="st4" points="150.7,0 150.7,168.8 290.8,232.5 		"/>
		<path class="st5" d="M150.7,168.8v146.5l-20-11.8l-120-71l-0.2-0.1l0.3-0.1c0.1-0.3,0.3-0.7,0.4-1l0,0l17.5-29.1l102-46.2v22
			L150.7,168.8z"/>
		<polygon class="st6" points="150.7,168.8 150.7,315.4 130.7,303.5 10.7,232.6 10.6,232.5 10.8,232.4 130.7,177.9 		"/>
		<polygon class="st7" points="150.7,0 150.7,168.8 10.6,232.5 		"/>
		<path class="st8" d="M94,443.8c2.1,0.9,4.2,1.8,6.3,2.6C98.2,445.6,96.1,444.8,94,443.8z"/>
		<path class="st8" d="M100.3,446.4c2.1,0.8,4.3,1.6,6.5,2.3C104.6,448,102.4,447.3,100.3,446.4z"/>
		<path class="st8" d="M112.3,450.5c1.7,0.5,3.3,0.9,5,1.3C115.7,451.4,114,450.9,112.3,450.5z"/>
		<path class="st7" d="M4.5,262.1l146.2,86.5c-2,13.2-5.5,26-10.5,38.4c-11.7,28.3-35.3,58.2-81.1,35.4l0,0
			C23.1,393,0,347.3,0,298.5C0,286.3,1.5,274,4.5,262.1z"/>
		<path class="st9" d="M242.2,422.4l-0.4,0.3c-0.8,0.6-1.5,1.2-2.3,1.8l-0.2,0.2c-0.8,0.7-1.7,1.3-2.5,1.9c-0.9,0.7-1.8,1.4-2.8,2
			s-1.9,1.3-2.8,2s-1.7,1.1-2.5,1.7l-0.5,0.3c-0.9,0.6-1.8,1.1-2.6,1.7c-0.1,0.1-0.2,0.1-0.3,0.2c-0.9,0.6-1.8,1.1-2.7,1.6
			s-2,1.2-3,1.7c-1,0.6-2,1.1-3,1.6l-0.1,0.1c-1,0.5-2,1-3,1.5s-2,1-3.1,1.5s-2.1,1-3.1,1.4c-2.1,0.9-4.2,1.8-6.3,2.6
			c-2.1,0.8-4.3,1.6-6.5,2.3c-0.9,0.3-1.7,0.6-2.6,0.8c-0.9,0.3-2,0.6-2.9,0.9c-1.7,0.5-3.3,0.9-5,1.3c-0.6,0.2-1.3,0.3-1.9,0.5
			l-1.1,0.2c-0.9,0.2-1.8,0.4-2.7,0.6s-1.6,0.3-2.5,0.5s-1.5,0.3-2.3,0.4s-1.7,0.3-2.5,0.4c-0.4,0.1-0.8,0.1-1.2,0.2l-1.9,0.2
			l-1.1,0.1c-0.7,0.1-1.4,0.2-2.1,0.2c-0.9,0.1-1.7,0.2-2.6,0.2c-0.7,0-1.3,0.1-2,0.2c-0.7,0-1.2,0.1-1.8,0.1h-0.1
			c-0.7,0-1.4,0.1-2,0.1c-0.9,0-1.9,0.1-2.8,0.1c-0.9,0-1.9,0-2.9,0s-1.9,0-2.9,0s-1.9,0-2.8-0.1c-0.7,0-1.4-0.1-2.1-0.1h-0.1
			c-0.6,0-1.2-0.1-1.8-0.1s-1.3-0.1-2-0.2c-0.9-0.1-1.7-0.1-2.6-0.2c-0.7-0.1-1.4-0.1-2.1-0.2l-1-0.1c-0.6-0.1-1.3-0.2-1.9-0.2
			c-0.4,0-0.8-0.1-1.2-0.2c-0.8-0.1-1.7-0.2-2.5-0.4c-0.8-0.1-1.5-0.3-2.3-0.4s-1.6-0.3-2.5-0.5c-0.8-0.2-1.8-0.4-2.7-0.6l-1.1-0.2
			c-0.6-0.1-1.3-0.3-1.9-0.5c-1.7-0.4-3.3-0.9-5-1.3l-3-0.9c-0.9-0.3-1.7-0.5-2.6-0.8c-2.2-0.7-4.3-1.5-6.5-2.3s-4.3-1.7-6.3-2.6
			c-1-0.5-2.1-0.9-3.1-1.4s-2.1-1-3.1-1.5s-2-1-3-1.5l-0.1-0.1c-1-0.5-2-1.1-3-1.6s-2-1.1-3-1.7s-1.8-1.1-2.7-1.6l-0.3-0.2
			c-0.9-0.5-1.8-1.1-2.6-1.7l-0.5-0.3c-0.8-0.5-1.7-1.1-2.5-1.7s-1.9-1.3-2.8-2c-0.9-0.7-1.8-1.3-2.8-2c-0.9-0.7-1.7-1.3-2.5-1.9
			l-0.2-0.2c-0.8-0.6-1.5-1.2-2.3-1.8l-0.4-0.3c45.7,22.8,69.4-7.2,81.1-35.4c5-12.3,8.5-25.2,10.5-38.4c2,13.2,5.5,26,10.5,38.4
			C172.9,415.2,196.5,445.1,242.2,422.4z"/>
		<path class="st8" d="M184,451.8c1.7-0.4,3.4-0.9,5-1.3C187.4,451,185.7,451.4,184,451.8z"/>
		<path class="st8" d="M194.6,448.8c2.2-0.7,4.3-1.5,6.5-2.3C199,447.3,196.8,448,194.6,448.8z"/>
		<path class="st8" d="M201.1,446.4c2.1-0.8,4.2-1.7,6.3-2.6C205.4,444.8,203.2,445.6,201.1,446.4z"/>
		<path class="st4" d="M301.4,298.5c0,48.8-23.2,94.4-59.1,123.9c-45.7,22.8-69.4-7.2-81.1-35.4c-5-12.3-8.5-25.2-10.5-38.4
			l146.2-86.5C299.9,274,301.4,286.3,301.4,298.5z"/>
	</g>
</g>
</svg>
