<?xml version="1.0" encoding="iso-8859-1"?>
<!-- Generator: Adobe Illustrator 19.0.0, SVG Export Plug-In . SVG Version: 6.00 Build 0)  -->
<svg version="1.1" xmlns="http://www.w3.org/2000/svg" xmlns:xlink="http://www.w3.org/1999/xlink" width="36" height="36" viewBox="0 0 35 36" fill="none" xml:space="preserve" color="rgb(255, 140, 5)">
<path fill="currentColor" fill-rule="evenodd" clip-rule="evenodd" d="M11.1509 4.95988V16.591L11.552 16.5885C19.1216 16.5403 25.436 21.9956 26.7138 29.197C29.9437 26.5362 32 22.5076 32 18C32 9.99187 25.5081 3.5 17.5 3.5C15.2205 3.5 13.0671 4.02498 11.1509 4.95988ZM23.9185 31.006C23.4642 24.5951 18.0981 19.5469 11.5711 19.5884L11.1509 19.5911V31.0401C13.0671 31.975 15.2205 32.5 17.5 32.5C19.807 32.5 21.9849 31.9623 23.9185 31.006ZM8.15094 29.0842V6.91579C4.99903 9.57694 3 13.5557 3 18C3 22.4443 4.99903 26.4231 8.15094 29.0842ZM8.91402 2.74779C11.452 1.31626 14.3829 0.5 17.5 0.5C27.165 0.5 35 8.33502 35 18C35 24.5021 31.4532 30.1739 26.1961 33.1896C23.6329 34.6599 20.6623 35.5 17.5 35.5C14.3829 35.5 11.452 34.6837 8.91402 33.2522C3.59625 30.2528 0 24.5473 0 18C0 11.4527 3.59625 5.74723 8.91402 2.74779Z"></path>
</svg>