<?xml version="1.0" encoding="utf-8"?>
<!-- Generator: Adobe Illustrator 24.0.1, SVG Export Plug-In . SVG Version: 6.00 Build 0)  -->
<svg version="1.1" xmlns="http://www.w3.org/2000/svg" xmlns:xlink="http://www.w3.org/1999/xlink" x="0px" y="0px"
	 viewBox="0 0 84 84" style="enable-background:new 0 0 84 84;" xml:space="preserve">
<style type="text/css">
	.st0{clip-path:url(#SVGID_2_);}
	.st1{clip-path:url(#SVGID_4_);}
	.st2{clip-path:url(#SVGID_6_);}
	.st3{clip-path:url(#SVGID_8_);}
	.st4{fill:#D82407;}
	.st5{fill:#FE4135;}
	.st6{fill:#FF7D73;}
	.st7{fill:#FFD4D2;}
	.st8{fill:#EF4725;}
	.st9{fill:#4848EF;}
	.st10{fill:#7070EF;}
	.st11{fill:#9D9DF9;}
	.st12{fill:#D2D2FF;}
	.st13{fill:#2222E0;}
	.st14{fill:#681CB5;}
	.st15{fill:#A347FF;}
	.st16{fill:#B56BFF;}
	.st17{fill:#CC99FF;}
	.st18{fill:#8A25EF;}
	.st19{fill:#FF9C00;}
	.st20{fill:#FED702;}
	.st21{fill:#FFE471;}
	.st22{fill:#FFF7D7;}
	.st23{fill:#FFBC03;}
	.st24{fill:#E7898B;}
	.st25{fill:#B76C75;}
	.st26{fill:#F45E45;}
	.st27{fill:#FFA1A6;}
	.st28{fill:#BC243E;}
	.st29{fill:#F97C00;}
	.st30{fill:#F5C418;}
	.st31{fill:url(#SVGID_9_);}
	.st32{fill:url(#SVGID_10_);}
	.st33{fill:url(#SVGID_11_);}
	.st34{fill:url(#SVGID_12_);}
	.st35{fill:url(#SVGID_13_);}
	.st36{fill:url(#SVGID_14_);}
	.st37{opacity:0.4;fill:url(#SVGID_15_);}
	.st38{fill:url(#SVGID_16_);}
	.st39{fill:url(#SVGID_17_);}
	.st40{fill:url(#SVGID_18_);}
	.st41{fill:url(#SVGID_19_);}
	.st42{opacity:0.5;fill:#FFF502;}
	.st43{fill:url(#SVGID_20_);}
	.st44{fill:url(#SVGID_21_);}
	.st45{fill:#FFF205;}
	.st46{fill:#DF542A;}
	.st47{fill:#FEF006;}
	.st48{fill:#F5E718;}
	.st49{opacity:0.4;fill:url(#SVGID_22_);}
	.st50{opacity:0.4;fill:url(#SVGID_23_);}
	.st51{fill:url(#SVGID_24_);}
	.st52{fill:url(#SVGID_25_);}
	.st53{fill:url(#SVGID_26_);}
	.st54{opacity:0.5;fill:none;stroke:#FFF502;stroke-linecap:round;stroke-linejoin:round;stroke-miterlimit:10;}
	.st55{fill:url(#SVGID_27_);}
	.st56{fill:url(#SVGID_28_);}
	.st57{fill:none;stroke:#E6007E;stroke-miterlimit:10;}
	.st58{fill:#E22613;}
	.st59{clip-path:url(#SVGID_30_);}
	.st60{fill:#DD2A02;}
	.st61{fill:#EF4624;}
	.st62{fill:#FFBBBB;}
	.st63{fill:#AA61FF;}
	.st64{fill:#FFFFFF;}
	.st65{clip-path:url(#SVGID_32_);}
</style>
<g id="Layer_1">
</g>
<g id="Layer_2">
</g>
<g id="Layer_3">
</g>
<g id="Layer_4">
	<g>
		<circle class="st14" cx="42" cy="43.56" r="37.77"/>
		<circle class="st15" cx="42" cy="40.44" r="37.77"/>
		<path class="st16" d="M67.28,14.78C81.35,28.85,30.4,79.79,16.33,65.72s-14.07-36.88,0-50.95S53.21,0.71,67.28,14.78z"/>
		<circle class="st17" cx="41.26" cy="40.02" r="32.16"/>
		<circle class="st14" cx="42" cy="40.5" r="31.15"/>
		<circle class="st18" cx="42" cy="41.5" r="30.15"/>

			<ellipse transform="matrix(0.4436 -0.8962 0.8962 0.4436 -20.1071 65.4631)" class="st57" cx="42.67" cy="48.93" rx="1.92" ry="7.14"/>
		<path class="st17" d="M30.04,54.56c-0.62-0.97-5.07-11.18,3.86-21.03c0.88,1.66,2.66-0.58,4.21-2.11
			c3.49-3.47,2.73-11.55,2.64-14.02c0.49-0.46,1.95,0.75,2.46,1.23c1.91,1.8,4.97,5.89,5.15,13.71c0.01,0.6,0.77,0.86,1.15,0.39
			c0.66-0.8,0.49-1.47,1.04-1.91c1.13-0.9,1.79,0.1,1.75,0.57c-0.07,1.02,0.09,2.7,1.2,5.03c0.87,1.83,2.7,3.98,3.98,6.88l0.74,1.94
			"/>
		<path class="st63" d="M28.95,54.56c-0.6-0.94-4.9-12.35,2.9-22.01c0.38-0.47,1.03-0.51,1.53-0.17c0.99,0.68,2.43,0.25,3.64-0.96
			c3.49-3.47,3.88-9.73,3.79-12.2c-0.03-0.7,0.81-1.07,1.32-0.59c1.91,1.8,4.97,5.89,5.15,13.71c0.01,0.6,0.78,0.85,1.15,0.39
			c0.65-0.79,1.35-1.39,1.91-1.8c0.38-0.28,0.91,0.01,0.88,0.47c-0.07,1.02,0.09,2.7,1.2,5.04c0.87,1.83,2.7,3.98,3.98,6.88"/>
		<circle class="st30" cx="42.67" cy="48.93" r="14.83"/>
		<circle class="st17" cx="42.67" cy="48.93" r="14.83"/>
		<circle class="st63" cx="42.67" cy="47.71" r="14.17"/>
		<path class="st63" d="M51.27,28.24l0.56-2.05c0.07-0.24,0.24-0.43,0.48-0.51l2.18-0.77c0.56-0.2,1.14,0.23,0.99,0.88
			c-0.71,3.05-3.28,3.37-3.28,3.37C51.63,29.32,51.12,28.81,51.27,28.24z"/>
		<path class="st17" d="M52.11,28.9l1.12-2c0,0,0.85-1.53,1.27-1.98l-2.18,0.77c-0.23,0.08-0.41,0.27-0.48,0.51l-0.56,2.05
			c-0.14,0.52,0.29,1,0.81,0.94C52.08,29.1,52.08,29,52.11,28.9z"/>
		<path class="st17" d="M39.09,28.42c0,0,1.97-5.02,1.32-9.38c-0.65-4.36,3.29,0.3,4.08,2.57c-1.82-1.22-2.11-0.01-2.35,1.07
			C41.14,27.14,40.72,27.91,39.09,28.42z"/>
		<path class="st17" d="M56.76,53.58c0,0,1.53-4.86,3.98-8.81c0.56-0.91-0.43-2-1.38-1.53c-9.69,4.78-6.22,15.1-12.14,17.89
			C47.58,61.36,54.59,56.67,56.76,53.58z"/>
		<path class="st17" d="M27.37,46.07c0,0,0.9-7.38,4.92-9.58s4.89,2.8,3.51,3.26c-2.7,3.45-9.46,17.08,2.61,20.74
			c1.19,2.15,4.54,3.27,4.54,3.27S31.01,64.4,27.04,52.79c-2.3-5.27-3.23-5.99-3.98-6.62s0.36-1.58,0.36-1.58S25.16,44,27.37,46.07z
			"/>
		<path class="st17" d="M20.18,36.03c0,0,0.52-2.54,2.46-0.4s0.83,3.31,0.83,3.31S22,40.11,20.18,36.03z"/>
		<path class="st17" d="M28.87,46.05l10.07,10.55h1.82l8.17-1.19l2.04-0.24l1.84,1.43c0,0-0.46,1.82-0.63,2.14
			c-0.17,0.32-5.48,3.33-5.88,3.73c-0.4,0.4-9.44-0.58-9.44-0.58l-7.3-6.55L28.87,46.05z"/>
		<circle class="st63" cx="41.18" cy="50.12" r="11.02"/>
		<path class="st14" d="M46.14,47.51c0,0,0-0.01,0.01-0.01c-1.23-1.67-3.2-2.7-3.57-5.86c-0.14-1.18-1.93-1.34-2.64-0.39
			c-1.84,2.45-2.76,4.85-3.08,6.51c-0.07,0.38-0.25,0.57-0.49,0.39s-0.23-0.18-0.23-0.18c-0.4-0.3-0.98-0.01-0.97,0.49
			c0.07,6.24,4.98,7.29,4.98,7.29l-0.01-0.03c0.53,0.18,1.09,0.3,1.68,0.3c2.96,0,5.36-2.4,5.36-5.36
			C47.18,49.47,46.78,48.39,46.14,47.51z"/>
		<path class="st18" d="M46.28,47.71c-1.13-1.52-2.87-2.49-3.5-4.99c-0.13-1.08-1.56-1.04-2.21-0.17c-1.67,2.24-2.52,4.43-2.81,5.94
			c-0.07,0.34-0.23,0.52-0.44,0.36c-0.21-0.16-0.21-0.16-0.21-0.16c-0.36-0.28-0.89-0.01-0.89,0.44c0.07,5.69,4.54,6.65,4.54,6.65
			l-0.01-0.02c0.49,0.16,0.99,0.27,1.53,0.27c2.7,0,4.89-2.19,4.89-4.89C47.18,48.62,46.28,47.71,46.28,47.71z"/>
	</g>
</g>
</svg>
