<svg xmlns="http://www.w3.org/2000/svg" fill="none" viewBox="24 0 31.45 40"><path d="M39.4426 1.13667e-05C31.182 1.13667e-05 24.4858 6.69661 24.4858 14.9568C24.4862 15.9019 24.5747 16.8446 24.7508 17.7731L26.6829 16.4496C30.0798 14.1199 35.5896 14.1199 38.9864 16.4496L41.0141 17.8382L42.1128 18.5934C45.1747 20.6913 50.1348 20.6913 53.1936 18.5934L54.0952 17.9761C55.7532 9.87784 50.5325 1.96839 42.4339 0.310039C41.4513 0.10862 40.4513 0.0067266 39.4481 0.00593673L39.4426 1.13667e-05Z" fill="#F2B705"/><path d="M47.8476 23.9419C45.594 23.9419 43.4392 23.3305 41.8168 22.2183L38.6933 20.0774C37.1976 19.0494 35.1893 18.4834 33.0432 18.4834C30.8968 18.4834 28.8885 19.0462 27.3928 20.0774L25.3731 21.4605C24.9734 21.7342 24.4272 21.6319 24.1536 21.2326C23.8799 20.8325 23.9818 20.2863 24.3818 20.0126L26.4012 18.6295C28.1871 17.4044 30.5445 16.7311 33.0432 16.7311C35.5412 16.7311 37.899 17.4044 39.6849 18.6295L42.8085 20.7705C45.9013 22.6634 49.7938 22.6634 52.8866 20.7705L54.0726 19.9593C54.4723 19.6856 55.0185 19.7871 55.2922 20.1872C55.5659 20.5872 55.464 21.1331 55.0639 21.4067L53.8783 22.2183C52.2472 23.3337 50.1011 23.9419 47.8476 23.9419Z" fill="#53CBC8"/><path d="M32.9783 30.223V21.7729C32.9716 21.5952 32.9791 21.4171 33.0008 21.2405C33.0553 20.7591 33.4629 20.3954 33.9471 20.3958C34.4167 20.4084 34.8014 20.7725 34.8401 21.2405C34.876 21.534 34.8863 21.8298 34.8709 22.1252V38.4425V38.9745C34.8203 39.5997 34.4289 40.0112 33.9021 39.9998C33.3752 39.9887 32.9949 39.5606 32.9925 38.9267V33.3099L32.9783 30.223Z" fill="#53CBC8"/><path d="M31.2009 25.9697V30.1695C31.2009 30.8879 30.8178 31.3638 30.2744 31.3468C29.7305 31.3299 29.3194 30.8457 29.3167 30.1612V21.7648C29.3167 21.0294 29.7448 20.5334 30.3024 20.5618C30.8601 20.5899 31.1926 21.035 31.1954 21.77C31.2037 23.17 31.2009 24.5701 31.2009 25.9697Z" fill="#53CBC8"/><path d="M36.6569 25.9643V23.0122C36.6569 22.3277 37.0203 21.8858 37.5609 21.8858C38.102 21.8858 38.5187 22.3419 38.5246 22.9869C38.5451 24.9963 38.5451 27.0046 38.5246 29.0121C38.5246 29.6965 38.1214 30.1076 37.5665 30.1021C37.0116 30.0966 36.6569 29.6764 36.651 28.9754V25.9616L36.6569 25.9643Z" fill="#53CBC8"/><path d="M25.655 26.5783V23.6262C25.655 22.9421 26.0183 22.4998 26.559 22.4998C27.1001 22.4998 27.5167 22.956 27.5226 23.6009C27.5412 25.6104 27.5412 27.6186 27.5226 29.6261C27.5226 30.3105 27.1166 30.7217 26.5645 30.7161C26.0128 30.7106 25.655 30.2904 25.649 29.5894V26.5756L25.655 26.5783Z" fill="#53CBC8"/><path d="M41.2426 24.0656H41.2454C41.7572 24.0656 42.1723 24.4807 42.1723 24.9926V26.598C42.1723 27.1098 41.7572 27.5249 41.2454 27.5249H41.2426C40.7308 27.5249 40.3157 27.1098 40.3157 26.598V24.9926C40.3157 24.4807 40.7308 24.0656 41.2426 24.0656Z" fill="#53CBC8"/><path d="M44.9154 25.4715H44.9182C45.43 25.4715 45.8451 25.8866 45.8451 26.3984V35.403C45.8451 35.9149 45.43 36.3296 44.9182 36.3296H44.9154C44.4036 36.3296 43.9889 35.9149 43.9889 35.403V26.3984C43.9889 25.8866 44.4036 25.4715 44.9154 25.4715Z" fill="#53CBC8"/><path d="M48.563 25.8205H48.5658C49.0776 25.8205 49.4927 26.2356 49.4927 26.7474V34.4006C49.4927 34.9124 49.0776 35.3267 48.5658 35.3267H48.563C48.0512 35.3267 47.6365 34.9124 47.6365 34.4006V26.7474C47.6365 26.2356 48.0512 25.8205 48.563 25.8205Z" fill="#53CBC8"/><path d="M52.2614 24.9473H52.2641C52.776 24.9473 53.1911 25.3624 53.1911 25.8742V29.1751C53.1911 29.6869 52.776 30.102 52.2641 30.102H52.2614C51.7495 30.102 51.3348 29.6869 51.3348 29.1751V25.8742C51.3348 25.3624 51.7495 24.9473 52.2614 24.9473Z" fill="#53CBC8"/></svg>