<svg id="ref" xmlns="http://www.w3.org/2000/svg" xmlns:xlink="http://www.w3.org/1999/xlink" viewBox="0 0 500 500"><defs><style>.cls-1{fill:url(#linear-gradient);}.cls-2{fill:url(#linear-gradient-2);}</style><linearGradient id="linear-gradient" x1="63.76" y1="250" x2="434.71" y2="250" gradientUnits="userSpaceOnUse"><stop offset="0" stop-color="#31eda9"/><stop offset="0.06" stop-color="#71ef74"/><stop offset="0.13" stop-color="#aef043"/><stop offset="0.18" stop-color="#daf11e"/><stop offset="0.22" stop-color="#f5f208"/><stop offset="0.25" stop-color="#fff200"/><stop offset="0.27" stop-color="#fedc0e"/><stop offset="0.38" stop-color="#fa685a"/><stop offset="0.46" stop-color="#f71f89"/><stop offset="0.5" stop-color="#f6029c"/><stop offset="0.5" stop-color="#f0059e"/><stop offset="0.56" stop-color="#be21ab"/><stop offset="0.61" stop-color="#9239b7"/><stop offset="0.66" stop-color="#6c4ec1"/><stop offset="0.72" stop-color="#4e5fca"/><stop offset="0.78" stop-color="#376cd0"/><stop offset="0.84" stop-color="#2675d4"/><stop offset="0.91" stop-color="#1c7ad7"/><stop offset="1" stop-color="#197cd8"/></linearGradient><linearGradient id="linear-gradient-2" x1="63.15" x2="436.85" xlink:href="#linear-gradient"/></defs><path class="cls-1" d="M348.87,215.54c-6.27,0-10.41,2.33-15.74,5.2-7.73,4.17-18.07,8.67-28.78,8.67-17.35,0-30-8.06-39.4-14.07-8.46-5.38-16.89-10.78-31.37-10.78-22.85,0-42.94,19.61-42.94,45.44s20.09,45.44,42.94,45.44c14.48,0,22.91-5.4,31.37-10.78,9.45-6,22.05-14.08,39.4-14.08,10.71,0,21,4.51,28.78,8.68,5.33,2.87,9.47,5.2,15.74,5.2,14.92,0,26-15.79,26-34.46S363.79,215.54,348.87,215.54Z"/><path class="cls-2" d="M250,63.15C146.81,63.15,63.15,146.81,63.15,250S146.81,436.85,250,436.85,436.85,353.19,436.85,250,353.19,63.15,250,63.15Zm97.57,255.42c-18.89,0-27.07-10-41.95-10-9.43,0-15.29,4.69-22.45,9.89-9.91,7.21-29.13,29.3-64.62,29.3-49.11,0-92.13-40.95-91.83-97.78h0c-.3-56.83,42.72-97.78,91.83-97.78,35.49,0,54.71,22.09,64.62,29.3,7.16,5.2,13,9.89,22.45,9.89,14.88,0,23.06-10,41.95-10,32.57,0,56.73,30.81,56.73,68.39S380.14,318.57,347.57,318.57Z"/></svg>