<svg id="Layer_1" data-name="Layer 1" xmlns="http://www.w3.org/2000/svg" viewBox="0 0 821 383"><defs><style>.cls-1{fill:#031316;}.cls-2{fill:#48c148;}.cls-3{fill:#0e560e;}</style></defs><path class="cls-1" d="M381.64,155.07a25.35,25.35,0,0,1-10.6,10q-7.16,3.82-17.75,3.82H340.23V200H319.15V113.48h34.14q10.35,0,17.5,3.57a24.51,24.51,0,0,1,10.72,9.86,28.57,28.57,0,0,1,3.58,14.42A27.87,27.87,0,0,1,381.64,155.07Zm-20.95-5.73q3-2.84,2.95-8t-2.95-8q-3-2.83-9-2.84H340.23v21.69h11.46Q357.72,152.17,360.69,149.34Z"/><path class="cls-1" d="M418.21,113.48V200H397.14V113.48Z"/><path class="cls-1" d="M436.91,133.75a39.58,39.58,0,0,1,15.46-15.65,44.87,44.87,0,0,1,22.49-5.61q15.4,0,26.38,8.13a39.07,39.07,0,0,1,14.66,22.19H492.73a18.68,18.68,0,0,0-7.33-8.26,20.61,20.61,0,0,0-10.78-2.83q-9.74,0-15.78,6.77t-6,18.12q0,11.34,6,18.12t15.78,6.77a20.61,20.61,0,0,0,10.78-2.83,18.68,18.68,0,0,0,7.33-8.26H515.9a38.76,38.76,0,0,1-14.66,22.13q-11,8.07-26.38,8.07A44.87,44.87,0,0,1,452.37,195a39.75,39.75,0,0,1-15.46-15.59,46.13,46.13,0,0,1-5.55-22.8A46.47,46.47,0,0,1,436.91,133.75Z"/><path class="cls-1" d="M579.06,200,550,161.78V200H528.9V113.48H550v38l28.83-37.95h24.77l-33.52,42.39L604.82,200Z"/><path class="cls-1" d="M638.59,183.72H666.2V200H617.52V113.48h21.07Z"/><path class="cls-1" d="M700,130.36v17.5h28.22v16.27H700v19h31.92V200h-53V113.48h53v16.88Z"/><path class="cls-2" d="M328.48,237v10.65h18.64v7.48H328.48v14.67h-9.33V229.54h30.44V237Z"/><path class="cls-2" d="M380.52,229.54h9.32v40.28h-9.32Z"/><path class="cls-2" d="M460.76,229.54v40.28h-7.65L433,245.37v24.45h-9.2V229.54h7.71l20,24.46V229.54Z"/><path class="cls-2" d="M521.49,261.19h-18.7l-3.57,8.63h-9.55l17.95-40.28h9.21l18,40.28h-9.78Zm-2.93-7.08-6.39-15.42-6.39,15.42Z"/><path class="cls-2" d="M600.64,229.54v40.28H593L572.9,245.37v24.45h-9.2V229.54h7.71l20,24.46V229.54Z"/><path class="cls-2" d="M632.22,249.68c0-12.14,9.32-20.83,21.87-20.83,7,0,12.77,2.53,16.57,7.14l-6,5.52a12.94,12.94,0,0,0-10.12-4.72c-7.54,0-12.89,5.3-12.89,12.89s5.35,12.89,12.89,12.89a12.81,12.81,0,0,0,10.12-4.78l6,5.53c-3.8,4.66-9.61,7.19-16.63,7.19C641.54,270.51,632.22,261.82,632.22,249.68Z"/><path class="cls-2" d="M732.21,262.34v7.48H701V229.54h30.44V237H710.29v8.75H729V253h-18.7v9.32Z"/><path class="cls-3" d="M140,133.6h.21a51.37,51.37,0,0,1-47.59-32.07,51.13,51.13,0,0,0-3.78,19.29v141.3a51.37,51.37,0,0,0,51.37,51.37h0a51.37,51.37,0,0,0,51.37-51.37V185.18A51.58,51.58,0,0,0,140,133.6Z"/><path class="cls-2" d="M190,70.12a90.74,90.74,0,0,0-10.35-.61H140.1a51.31,51.31,0,0,0-47.53,32,51.37,51.37,0,0,0,47.59,32.07h.05a51.57,51.57,0,0,1,51.32,51.57V248.5A89.88,89.88,0,0,0,190,70.12Z"/><path class="cls-2" d="M105.14,170.21A4,4,0,0,1,102.3,169a17.88,17.88,0,0,1,0-25.24,4,4,0,1,1,5.68,5.67,9.83,9.83,0,0,0,0,13.89,4,4,0,0,1-2.84,6.85Z"/><path class="cls-2" d="M105.14,214.62a4,4,0,0,1-2.84-1.18,17.88,17.88,0,0,1,0-25.24,4,4,0,0,1,5.68,5.68,9.83,9.83,0,0,0,0,13.89,4,4,0,0,1-2.84,6.85Z"/><path class="cls-2" d="M105.14,259a4,4,0,0,1-2.84-1.17,17.88,17.88,0,0,1,0-25.24,4,4,0,1,1,5.68,5.67,9.83,9.83,0,0,0,0,13.89,4,4,0,0,1-2.84,6.85Z"/><path class="cls-2" d="M125.53,192.41a4,4,0,0,1-2.84-1.17,17.87,17.87,0,0,1,0-25.24,4,4,0,0,1,5.67,5.68,9.83,9.83,0,0,0,0,13.89,4,4,0,0,1-2.83,6.84Z"/><path class="cls-2" d="M125.53,236.82a4,4,0,0,1-2.84-1.17,17.87,17.87,0,0,1,0-25.24,4,4,0,0,1,5.67,5.67,9.83,9.83,0,0,0,0,13.89,4,4,0,0,1-2.83,6.85Z"/></svg>