<svg id="Layer_1" data-name="Layer 1" xmlns="http://www.w3.org/2000/svg" viewBox="0 0 821 383"><defs><style>.cls-1{fill:#fff;}.cls-2{fill:#48c148;}.cls-3{fill:#0e560e;}</style></defs><path class="cls-1" d="M381.62,155.05a25.31,25.31,0,0,1-10.6,10q-7.15,3.83-17.75,3.82H340.2V200H319.11V113.44h34.16q10.35,0,17.51,3.57a24.64,24.64,0,0,1,10.72,9.87,28.7,28.7,0,0,1,3.58,14.42A27.88,27.88,0,0,1,381.62,155.05Zm-20.95-5.73q3-2.83,2.95-8t-2.95-8q-3-2.83-9-2.83H340.2v21.7h11.46Q357.71,152.16,360.67,149.32Z"/><path class="cls-1" d="M418.22,113.44V200H397.13V113.44Z"/><path class="cls-1" d="M436.92,133.72a39.69,39.69,0,0,1,15.47-15.66,45,45,0,0,1,22.5-5.6q15.42,0,26.39,8.13A39.08,39.08,0,0,1,516,142.78H492.77a18.84,18.84,0,0,0-7.33-8.26,20.67,20.67,0,0,0-10.79-2.83q-9.75,0-15.78,6.78t-6.05,18.12q0,11.35,6.05,18.13t15.78,6.78a20.58,20.58,0,0,0,10.79-2.84,18.68,18.68,0,0,0,7.33-8.26H516a38.83,38.83,0,0,1-14.67,22.14q-11,8.07-26.39,8.07a44.94,44.94,0,0,1-22.5-5.61,39.74,39.74,0,0,1-15.47-15.6,46.14,46.14,0,0,1-5.55-22.81A46.53,46.53,0,0,1,436.92,133.72Z"/><path class="cls-1" d="M579.14,200,550,161.77V200H529V113.44H550v38l28.85-38h24.78l-33.53,42.41L604.91,200Z"/><path class="cls-1" d="M638.69,183.72h27.62V200h-48.7V113.44h21.08Z"/><path class="cls-1" d="M700.14,130.33v17.51h28.24v16.27H700.14v19h31.94V200h-53V113.44h53v16.89Z"/><path class="cls-2" d="M328.44,237v10.65h18.65v7.49H328.44v14.67h-9.33V229.56h30.46V237Z"/><path class="cls-2" d="M380.5,229.56h9.33v40.29H380.5Z"/><path class="cls-2" d="M460.78,229.56v40.29h-7.65L433,245.39v24.46h-9.21V229.56h7.72l20,24.46V229.56Z"/><path class="cls-2" d="M521.54,261.22H502.83l-3.57,8.63h-9.55l18-40.29h9.21l18,40.29h-9.79Zm-2.93-7.08-6.39-15.43-6.39,15.43Z"/><path class="cls-2" d="M600.72,229.56v40.29h-7.65L573,245.39v24.46h-9.21V229.56h7.71l20,24.46V229.56Z"/><path class="cls-2" d="M632.32,249.71c0-12.15,9.33-20.84,21.88-20.84,7,0,12.77,2.53,16.57,7.14l-6,5.52a13,13,0,0,0-10.13-4.72c-7.55,0-12.9,5.3-12.9,12.9s5.35,12.89,12.9,12.89a12.85,12.85,0,0,0,10.13-4.78l6,5.53c-3.8,4.66-9.61,7.19-16.63,7.19C641.65,270.54,632.32,261.85,632.32,249.71Z"/><path class="cls-2" d="M732.36,262.37v7.48h-31.2V229.56h30.45V237H710.42v8.75h18.71v7.26H710.42v9.32Z"/><path class="cls-3" d="M139.83,133.57l.26,0v0H140a51.4,51.4,0,0,1-47.61-32.08,51.15,51.15,0,0,0-3.79,19.3V262.15A51.39,51.39,0,0,0,140,313.54h0a51.4,51.4,0,0,0,51.4-51.39v-77A51.61,51.61,0,0,0,139.83,133.57Z"/><path class="cls-2" d="M189.94,70.07a90.78,90.78,0,0,0-10.36-.61H140a51.32,51.32,0,0,0-47.54,32A51.4,51.4,0,0,0,140,133.57h.05v0a51.59,51.59,0,0,1,51.35,51.59v63.35a89.92,89.92,0,0,0-1.5-178.46Z"/><path class="cls-2" d="M105,170.2a4,4,0,0,1-2.84-1.17,17.88,17.88,0,0,1,0-25.25,4,4,0,0,1,5.68,5.67,9.84,9.84,0,0,0,0,13.9A4,4,0,0,1,105,170.2Z"/><path class="cls-2" d="M105,214.63a4,4,0,0,1-2.84-1.18,17.88,17.88,0,0,1,0-25.25,4,4,0,0,1,5.68,5.68,9.84,9.84,0,0,0,0,13.9,4,4,0,0,1-2.84,6.85Z"/><path class="cls-2" d="M105,259.05a4,4,0,0,1-2.84-1.17,17.88,17.88,0,0,1,0-25.25,4,4,0,0,1,5.68,5.67,9.84,9.84,0,0,0,0,13.9,4,4,0,0,1-2.84,6.85Z"/><path class="cls-2" d="M125.4,192.42a4,4,0,0,1-2.84-1.18,17.88,17.88,0,0,1,0-25.25,4,4,0,1,1,5.67,5.68,9.83,9.83,0,0,0,0,13.89,4,4,0,0,1-2.83,6.86Z"/><path class="cls-2" d="M125.4,236.84a4,4,0,0,1-2.84-1.18,17.87,17.87,0,0,1,0-25.24,4,4,0,0,1,5.67,5.67,9.84,9.84,0,0,0,0,13.9,4,4,0,0,1-2.83,6.85Z"/></svg>