<svg xmlns="http://www.w3.org/2000/svg" width="158" height="60">
  <g transform="translate(0 -0)">
    <g transform="translate(0 0)">
      <path d="M 71.784 20.981 C 71.181 22.035 70.285 22.892 69.204 23.445 C 67.852 24.112 66.357 24.433 64.851 24.381 L 61.626 24.381 L 61.626 31.994 L 56.467 31.994 L 56.467 10.781 L 64.851 10.781 C 66.331 10.735 67.802 11.035 69.146 11.658 C 70.246 12.179 71.162 13.023 71.771 14.077 C 72.37 15.158 72.673 16.378 72.648 17.613 C 72.659 18.789 72.368 19.949 71.803 20.981 M 66.644 19.574 C 67.146 19.059 67.41 18.357 67.372 17.639 C 67.419 16.909 67.154 16.194 66.644 15.671 C 66.027 15.161 65.236 14.911 64.438 14.974 L 61.633 14.974 L 61.633 20.297 L 64.438 20.297 C 65.236 20.36 66.027 20.11 66.644 19.6 M 75.582 10.781 L 80.748 10.781 L 80.748 31.994 L 75.582 31.994 Z M 85.333 15.748 C 86.207 14.138 87.519 12.809 89.118 11.916 C 90.805 10.984 92.706 10.511 94.632 10.542 C 96.943 10.479 99.209 11.18 101.081 12.536 C 102.877 13.873 104.148 15.797 104.673 17.974 L 98.992 17.974 C 98.613 17.133 97.988 16.426 97.199 15.948 C 96.398 15.478 95.483 15.237 94.555 15.252 C 93.081 15.2 91.662 15.811 90.686 16.916 C 89.656 18.159 89.129 19.743 89.209 21.355 C 89.131 22.974 89.665 24.563 90.705 25.806 C 91.681 26.912 93.101 27.523 94.574 27.471 C 95.503 27.486 96.418 27.245 97.218 26.774 C 98.007 26.296 98.632 25.59 99.011 24.748 L 104.693 24.748 C 104.169 26.923 102.898 28.844 101.101 30.174 C 99.223 31.517 96.959 32.212 94.652 32.155 C 92.725 32.186 90.824 31.712 89.138 30.781 C 87.543 29.885 86.231 28.56 85.352 26.955 C 84.423 25.239 83.954 23.312 83.992 21.361 C 83.957 19.407 84.425 17.476 85.352 15.755 M 120.177 31.994 L 113.044 22.626 L 113.044 31.994 L 107.879 31.994 L 107.879 10.781 L 113.044 10.781 L 113.044 20.09 L 120.112 10.781 L 126.187 10.781 L 117.971 21.174 L 126.49 31.994 Z M 134.764 28.006 L 141.529 28.006 L 141.529 31.994 L 129.599 31.994 L 129.599 10.781 L 134.764 10.781 Z M 149.823 14.923 L 149.823 19.213 L 156.736 19.213 L 156.736 23.2 L 149.823 23.2 L 149.823 27.858 L 157.645 27.858 L 157.645 31.994 L 144.657 31.994 L 144.657 10.781 L 157.645 10.781 L 157.645 14.923 Z" fill="rgb(255,255,255)"></path>
      <path d="M 58.75 41.077 L 58.75 43.69 L 63.323 43.69 L 63.323 45.523 L 58.75 45.523 L 58.75 49.123 L 56.467 49.123 L 56.467 39.245 L 63.929 39.245 L 63.929 41.077 Z M 71.506 39.245 L 73.789 39.245 L 73.789 49.123 L 71.506 49.123 Z M 91.176 39.245 L 91.176 49.123 L 89.299 49.123 L 84.378 43.123 L 84.378 49.123 L 82.121 49.123 L 82.121 39.245 L 84.011 39.245 L 88.919 45.239 L 88.919 39.245 Z M 106.06 47 L 101.481 47 L 100.604 49.116 L 98.263 49.116 L 102.661 39.245 L 104.918 39.245 L 109.336 49.116 L 106.937 49.116 Z M 105.344 45.265 L 103.777 41.484 L 102.21 45.265 Z M 125.465 39.245 L 125.465 49.123 L 123.588 49.123 L 118.661 43.123 L 118.661 49.123 L 116.411 49.123 L 116.411 39.245 L 118.3 39.245 L 123.208 45.239 L 123.208 39.245 Z M 133.204 44.181 C 133.204 41.206 135.487 39.071 138.563 39.071 C 140.114 39.006 141.609 39.652 142.626 40.826 L 141.155 42.181 C 140.55 41.436 139.638 41.009 138.679 41.019 C 136.934 41.019 135.519 42.435 135.519 44.181 C 135.519 45.927 136.934 47.342 138.679 47.342 C 139.641 47.354 140.555 46.921 141.155 46.168 L 142.626 47.523 C 141.612 48.709 140.108 49.362 138.55 49.29 C 135.487 49.29 133.204 47.155 133.204 44.181 M 157.716 47.284 L 157.716 49.123 L 150.068 49.123 L 150.068 39.245 L 157.529 39.245 L 157.529 41.077 L 152.338 41.077 L 152.338 43.219 L 156.923 43.219 L 156.923 45 L 152.338 45 L 152.338 47.284 Z" fill="rgb(72,193,72)"></path>
      <path d="M 12.543 15.716 L 12.595 15.716 C 7.469 15.714 2.855 12.604 0.929 7.852 C 0.316 9.353 0 10.959 0 12.581 L 0 47.232 C 0.155 54.078 5.747 59.547 12.592 59.547 C 19.437 59.547 25.028 54.078 25.183 47.232 L 25.183 28.387 C 25.183 21.403 19.524 15.742 12.543 15.742" fill="rgb(14,86,14)"></path>
      <path d="M 24.816 0.148 C 23.974 0.05 23.128 0 22.281 0 L 12.608 0 C 7.479 -0.009 2.858 3.098 0.929 7.852 C 2.855 12.604 7.469 15.714 12.595 15.716 C 19.566 15.745 25.198 21.413 25.183 28.387 L 25.183 43.871 C 36.173 42.377 44.338 32.942 44.245 21.848 C 44.152 10.753 35.829 1.458 24.816 0.148 M 4.005 24.697 C 3.745 24.698 3.496 24.593 3.315 24.406 C 2.494 23.586 2.034 22.473 2.034 21.313 C 2.034 20.153 2.494 19.04 3.315 18.219 C 3.698 17.836 4.318 17.836 4.701 18.219 C 5.084 18.602 5.084 19.223 4.701 19.606 C 3.767 20.55 3.767 22.07 4.701 23.013 C 4.982 23.295 5.066 23.719 4.914 24.087 C 4.762 24.455 4.403 24.696 4.005 24.697 M 4.005 35.581 C 3.746 35.581 3.498 35.479 3.315 35.297 C 1.606 33.586 1.606 30.814 3.315 29.103 C 3.699 28.72 4.322 28.722 4.705 29.106 C 5.087 29.491 5.086 30.114 4.701 30.497 C 3.767 31.44 3.767 32.96 4.701 33.903 C 4.887 34.087 4.992 34.338 4.992 34.6 C 4.992 34.862 4.887 35.113 4.701 35.297 C 4.515 35.479 4.265 35.58 4.005 35.581 M 4.005 46.452 C 3.745 46.453 3.496 46.348 3.315 46.161 C 2.494 45.341 2.034 44.228 2.034 43.068 C 2.034 41.907 2.494 40.795 3.315 39.974 C 3.699 39.591 4.322 39.593 4.705 39.977 C 5.087 40.362 5.086 40.985 4.701 41.368 C 3.767 42.311 3.767 43.831 4.701 44.774 C 4.978 45.057 5.059 45.478 4.907 45.843 C 4.756 46.209 4.4 46.448 4.005 46.452 M 9.029 30.136 C 8.768 30.138 8.517 30.036 8.332 29.852 C 6.63 28.138 6.63 25.372 8.332 23.658 C 8.719 23.278 9.339 23.278 9.725 23.658 C 9.911 23.842 10.016 24.093 10.016 24.355 C 10.016 24.617 9.911 24.867 9.725 25.052 C 8.791 25.995 8.791 27.515 9.725 28.458 C 10.008 28.739 10.093 29.163 9.941 29.531 C 9.788 29.899 9.427 30.138 9.029 30.136 M 9.029 41.026 C 8.768 41.026 8.518 40.924 8.332 40.742 C 6.63 39.028 6.63 36.262 8.332 34.548 C 8.719 34.168 9.339 34.168 9.725 34.548 C 9.911 34.733 10.016 34.983 10.016 35.245 C 10.016 35.507 9.911 35.758 9.725 35.942 C 8.772 36.872 8.749 38.397 9.673 39.355 C 9.859 39.539 9.964 39.79 9.964 40.052 C 9.964 40.313 9.859 40.564 9.673 40.748 C 9.487 40.93 9.237 41.032 8.977 41.032" fill="rgb(72,193,72)"></path>
    </g></g>
</svg>
